<svg viewBox="6.5 8.5 16.2 8.95" fill="none" xmlns="http://www.w3.org/2000/svg">
<path d="M7.04656 16.6274C7.04656 16.6274 7.71543 16.6274 8.80674 16.645C9.46387 16.645 10.2559 16.645 11.183 16.6157C11.5526 16.5981 11.9399 16.5805 12.3388 16.5394C15.5717 16.205 18.6461 14.6326 20.2948 11.4466L21.0224 11.1357L21.3099 11.8808C21.3099 11.8808 19.1272 16.5101 12.4327 16.8915C11.4939 16.9443 10.4554 16.9384 9.31132 16.9501C8.59552 16.956 7.84451 16.9501 7.0407 16.9501V16.6392L7.04656 16.6274Z" fill="currentColor"/>
<path d="M22.2486 12.7198L21.3099 11.875L20.2948 11.4466L19.051 11.4173L21.744 9.00587L22.2486 12.7257V12.7198Z" fill="currentColor"/>
</svg>
