<svg width="32" height="32" viewBox="0 0 32 32" fill="none" xmlns="http://www.w3.org/2000/svg">
<g clip-path="url(#clip0_3984_4579)">
<path d="M3.3326 19.5669H2.26476L0 14.0928H1.14998L2.79281 18.3348L4.44738 14.0928H5.59736L3.3326 19.5669Z" fill="currentColor"/>
<path d="M30.6095 19.5435H29.3304L27.7404 17.7187H26.7547V19.5435H25.7279V14.0869C26.5904 14.0869 27.4587 14.0928 28.3212 14.0928C29.3128 14.0048 30.1929 14.744 30.275 15.7356C30.275 15.7884 30.2809 15.8412 30.2809 15.8999C30.3396 16.7448 29.7411 17.4899 28.9021 17.6131L30.6095 19.5435ZM26.7547 15.0491V16.7917H28.3212C28.8023 16.821 29.2189 16.4573 29.2483 15.9762C29.2776 15.495 28.9138 15.0785 28.4327 15.0491C28.3975 15.0491 28.3564 15.0491 28.3212 15.0491H26.7547Z" fill="currentColor"/>
<path d="M7.23432 17.3022V18.5343H10.297V19.5435H6.21928V14.0928H10.297V15.0902H7.23432V16.3399" fill="currentColor"/>
<path d="M15.2725 19.1797C14.7737 19.5083 14.187 19.6784 13.5886 19.6725C12.1159 19.7899 10.8251 18.6868 10.7077 17.2142C10.696 17.0968 10.696 16.9795 10.7077 16.8621C10.6315 15.3484 11.799 14.0634 13.3128 13.9872C13.4067 13.9872 13.5005 13.9872 13.5944 13.9872C14.187 13.9872 14.7561 14.1749 15.2372 14.5152L14.586 15.231C14.2868 15.055 13.9406 14.9611 13.5944 14.967C12.6087 14.9142 11.7697 15.6711 11.7169 16.6568C11.7169 16.7213 11.7169 16.7917 11.7169 16.8563C11.6582 17.8185 12.3916 18.6458 13.3539 18.7044C13.4301 18.7044 13.5123 18.7044 13.5944 18.7044C13.9406 18.7044 14.2868 18.6106 14.586 18.4345L15.2783 19.1797H15.2725Z" fill="currentColor"/>
<path d="M25.0062 16.8504C25.0297 18.3935 23.7976 19.6667 22.2486 19.696C20.6997 19.7253 19.4323 18.4874 19.403 16.9384C19.403 16.9091 19.403 16.8856 19.403 16.8563C19.3619 15.3132 20.5823 14.0224 22.1254 13.9813C23.6685 13.9402 24.9593 15.1606 25.0004 16.7037C25.0004 16.7506 25.0004 16.7976 25.0004 16.8445L25.0062 16.8504ZM20.418 16.8739C20.3828 17.8596 21.1573 18.6868 22.143 18.722C23.1287 18.7572 23.956 17.9828 23.9912 16.9971C23.9912 16.956 23.9912 16.9091 23.9912 16.868C24.0792 15.8823 23.3458 15.0139 22.3601 14.9259C21.3744 14.8379 20.506 15.5713 20.418 16.557C20.4063 16.6626 20.4063 16.7682 20.418 16.8739Z" fill="currentColor"/>
<path d="M17.9773 15.1547H16.9388V19.5376H17.9773V15.1547Z" fill="currentColor"/>
<path d="M1.7877 22.2039H2.00772C1.99626 22.3094 1.96609 22.4037 1.91719 22.487C1.8683 22.5702 1.79916 22.6363 1.70978 22.6852C1.62039 22.7334 1.50885 22.7574 1.37516 22.7574C1.27737 22.7574 1.18837 22.7391 1.10815 22.7024C1.0287 22.6657 0.960325 22.6138 0.903028 22.5466C0.84573 22.4786 0.80142 22.3972 0.770098 22.3025C0.739539 22.207 0.72426 22.1008 0.72426 21.9839V21.8177C0.72426 21.7009 0.739539 21.595 0.770098 21.5003C0.80142 21.4048 0.846112 21.3231 0.904174 21.2551C0.962999 21.1871 1.03367 21.1348 1.11617 21.0981C1.19868 21.0614 1.2915 21.0431 1.39464 21.0431C1.52069 21.0431 1.62727 21.0668 1.71436 21.1141C1.80145 21.1615 1.86906 21.2272 1.91719 21.3112C1.96609 21.3945 1.99626 21.4911 2.00772 21.6012H1.7877C1.777 21.5232 1.75714 21.4564 1.72811 21.4006C1.69908 21.3441 1.65783 21.3005 1.60435 21.27C1.55087 21.2394 1.48097 21.2241 1.39464 21.2241C1.32053 21.2241 1.25522 21.2383 1.19868 21.2665C1.14291 21.2948 1.09593 21.3349 1.05773 21.3869C1.0203 21.4388 0.99203 21.5011 0.972931 21.5737C0.953832 21.6462 0.944282 21.7268 0.944282 21.8154V21.9839C0.944282 22.0656 0.952686 22.1424 0.969493 22.2142C0.987064 22.286 1.01342 22.3491 1.04856 22.4033C1.08371 22.4576 1.1284 22.5003 1.18264 22.5317C1.23688 22.5622 1.30105 22.5775 1.37516 22.5775C1.46913 22.5775 1.54399 22.5626 1.59976 22.5328C1.65553 22.503 1.69755 22.4602 1.72582 22.4045C1.75485 22.3487 1.77548 22.2818 1.7877 22.2039ZM4.18044 21.8475V21.953C4.18044 22.0783 4.16478 22.1906 4.13346 22.2899C4.10213 22.3892 4.05706 22.4736 3.99823 22.5431C3.93941 22.6126 3.86874 22.6657 3.78623 22.7024C3.70449 22.7391 3.61281 22.7574 3.51121 22.7574C3.41265 22.7574 3.32212 22.7391 3.23962 22.7024C3.15787 22.6657 3.08682 22.6126 3.02647 22.5431C2.96688 22.4736 2.92066 22.3892 2.88781 22.2899C2.85496 22.1906 2.83853 22.0783 2.83853 21.953V21.8475C2.83853 21.7222 2.85458 21.6103 2.88666 21.5118C2.91951 21.4125 2.96573 21.328 3.02532 21.2585C3.08491 21.1882 3.15558 21.1348 3.23732 21.0981C3.31983 21.0614 3.41036 21.0431 3.50891 21.0431C3.61052 21.0431 3.7022 21.0614 3.78394 21.0981C3.86645 21.1348 3.93712 21.1882 3.99594 21.2585C4.05553 21.328 4.10099 21.4125 4.13231 21.5118C4.1644 21.6103 4.18044 21.7222 4.18044 21.8475ZM3.96156 21.953V21.8452C3.96156 21.7459 3.95125 21.6581 3.93062 21.5817C3.91076 21.5053 3.88135 21.4411 3.84238 21.3892C3.80342 21.3372 3.75567 21.2979 3.69914 21.2711C3.64337 21.2444 3.57996 21.231 3.50891 21.231C3.44016 21.231 3.37789 21.2444 3.32212 21.2711C3.26712 21.2979 3.21975 21.3372 3.18003 21.3892C3.14106 21.4411 3.11089 21.5053 3.0895 21.5817C3.06811 21.6581 3.05741 21.7459 3.05741 21.8452V21.953C3.05741 22.053 3.06811 22.1417 3.0895 22.2188C3.11089 22.2952 3.14145 22.3598 3.18117 22.4125C3.22166 22.4644 3.26941 22.5038 3.32442 22.5305C3.38019 22.5573 3.44245 22.5706 3.51121 22.5706C3.58302 22.5706 3.64681 22.5573 3.70258 22.5305C3.75835 22.5038 3.80533 22.4644 3.84353 22.4125C3.88249 22.3598 3.91191 22.2952 3.93177 22.2188C3.95163 22.1417 3.96156 22.053 3.96156 21.953ZM6.38181 21.066V22.7345H6.15949L5.31951 21.4476V22.7345H5.09834V21.066H5.31951L6.16293 22.3563V21.066H6.38181ZM8.2497 22.3128C8.2497 22.2738 8.24359 22.2394 8.23137 22.2097C8.21991 22.1791 8.19928 22.1516 8.16948 22.1271C8.14045 22.1027 8.09996 22.0794 8.04801 22.0572C7.99683 22.0351 7.93189 22.0125 7.8532 21.9896C7.77069 21.9652 7.69621 21.9381 7.62974 21.9083C7.56328 21.8777 7.50636 21.8429 7.459 21.804C7.41163 21.765 7.37534 21.7203 7.35013 21.6699C7.32492 21.6195 7.31231 21.5618 7.31231 21.4969C7.31231 21.4319 7.32568 21.372 7.35242 21.317C7.37916 21.262 7.41736 21.2142 7.46702 21.1737C7.51744 21.1325 7.57741 21.1004 7.64693 21.0775C7.71645 21.0545 7.794 21.0431 7.87956 21.0431C8.00485 21.0431 8.11104 21.0671 8.19813 21.1153C8.28599 21.1626 8.35284 21.2249 8.39867 21.3021C8.44451 21.3785 8.46743 21.4602 8.46743 21.5473H8.24741C8.24741 21.4846 8.23404 21.4293 8.2073 21.3811C8.18056 21.3322 8.14007 21.294 8.08583 21.2665C8.03159 21.2383 7.96283 21.2241 7.87956 21.2241C7.80087 21.2241 7.73593 21.236 7.68475 21.2597C7.63356 21.2833 7.59536 21.3154 7.57015 21.3559C7.54571 21.3964 7.53348 21.4426 7.53348 21.4946C7.53348 21.5297 7.54074 21.5618 7.55526 21.5908C7.57054 21.6191 7.59384 21.6455 7.62516 21.6699C7.65725 21.6944 7.69774 21.7169 7.74663 21.7375C7.79629 21.7581 7.85549 21.778 7.92425 21.7971C8.01898 21.8239 8.10073 21.8536 8.16948 21.8865C8.23824 21.9193 8.29477 21.9564 8.33908 21.9977C8.38416 22.0381 8.41739 22.0844 8.43878 22.1363C8.46094 22.1875 8.47201 22.2456 8.47201 22.3105C8.47201 22.3785 8.45826 22.44 8.43076 22.495C8.40326 22.55 8.36391 22.597 8.31273 22.6359C8.26154 22.6749 8.20004 22.7051 8.12823 22.7265C8.05718 22.7471 7.97773 22.7574 7.88987 22.7574C7.81271 22.7574 7.7367 22.7467 7.66183 22.7253C7.58772 22.7039 7.52011 22.6719 7.459 22.6291C7.39864 22.5863 7.35013 22.5336 7.31346 22.4709C7.27755 22.4075 7.2596 22.3342 7.2596 22.2509H7.47962C7.47962 22.3082 7.4907 22.3575 7.51286 22.3987C7.53501 22.4392 7.56519 22.4728 7.60339 22.4996C7.64235 22.5263 7.68628 22.5462 7.73517 22.5592C7.78483 22.5714 7.8364 22.5775 7.88987 22.5775C7.96703 22.5775 8.03235 22.5668 8.08583 22.5454C8.13931 22.524 8.1798 22.4935 8.2073 22.4537C8.23557 22.414 8.2497 22.367 8.2497 22.3128ZM10.2952 21.066H10.5152V22.1948C10.5152 22.32 10.4874 22.4243 10.4316 22.5076C10.3758 22.5909 10.3017 22.6535 10.2093 22.6955C10.1176 22.7368 10.0179 22.7574 9.91018 22.7574C9.79711 22.7574 9.69474 22.7368 9.60306 22.6955C9.51215 22.6535 9.43996 22.5909 9.38648 22.5076C9.33377 22.4243 9.30741 22.32 9.30741 22.1948V21.066H9.52629V22.1948C9.52629 22.2818 9.54233 22.3537 9.57442 22.4102C9.6065 22.4667 9.65119 22.5087 9.70849 22.5362C9.76655 22.5638 9.83378 22.5775 9.91018 22.5775C9.98734 22.5775 10.0546 22.5638 10.1119 22.5362C10.1699 22.5087 10.215 22.4667 10.2471 22.4102C10.2792 22.3537 10.2952 22.2818 10.2952 22.1948V21.066ZM12.4611 22.5546V22.7345H11.6268V22.5546H12.4611ZM11.6704 21.066V22.7345H11.4492V21.066H11.6704ZM13.6036 21.066V22.7345H13.3858V21.066H13.6036ZM14.1399 21.066V21.2471H12.8507V21.066H14.1399ZM15.2113 21.066V22.7345H14.9902V21.066H15.2113ZM17.4837 21.066V22.7345H17.2614L16.4215 21.4476V22.7345H16.2003V21.066H16.4215L17.2649 22.3563V21.066H17.4837ZM19.6954 21.9037V22.5145C19.6748 22.545 19.642 22.5794 19.5969 22.6176C19.5518 22.655 19.4895 22.6879 19.4101 22.7162C19.3314 22.7437 19.2298 22.7574 19.1053 22.7574C19.0037 22.7574 18.9101 22.7398 18.8245 22.7047C18.7397 22.6688 18.666 22.6168 18.6033 22.5489C18.5415 22.4801 18.4933 22.3968 18.4589 22.299C18.4253 22.2005 18.4085 22.0889 18.4085 21.9644V21.8349C18.4085 21.7104 18.423 21.5992 18.4521 21.5015C18.4819 21.4037 18.5254 21.3208 18.5827 21.2528C18.64 21.184 18.7103 21.1321 18.7936 21.0969C18.8768 21.061 18.9723 21.0431 19.0801 21.0431C19.2076 21.0431 19.3142 21.0652 19.3998 21.1095C19.4861 21.1531 19.5533 21.2134 19.6015 21.2906C19.6504 21.3678 19.6817 21.4556 19.6954 21.5542H19.4743C19.4643 21.4938 19.4445 21.4388 19.4147 21.3892C19.3856 21.3395 19.344 21.2998 19.2898 21.27C19.2355 21.2394 19.1656 21.2241 19.0801 21.2241C19.0029 21.2241 18.936 21.2383 18.8795 21.2665C18.823 21.2948 18.7764 21.3353 18.7397 21.388C18.703 21.4407 18.6755 21.5045 18.6572 21.5794C18.6396 21.6543 18.6308 21.7387 18.6308 21.8326V21.9644C18.6308 22.0607 18.6419 22.1466 18.6641 22.2223C18.687 22.2979 18.7195 22.3624 18.7615 22.4159C18.8035 22.4686 18.8535 22.5087 18.9116 22.5362C18.9704 22.5638 19.0354 22.5775 19.1064 22.5775C19.1851 22.5775 19.2489 22.571 19.2978 22.558C19.3467 22.5443 19.3849 22.5282 19.4124 22.5099C19.4399 22.4908 19.4609 22.4728 19.4754 22.456V22.0825H19.0892V21.9037H19.6954ZM23.0508 21.9037V22.5145C23.0301 22.545 22.9973 22.5794 22.9522 22.6176C22.9071 22.655 22.8449 22.6879 22.7654 22.7162C22.6867 22.7437 22.5851 22.7574 22.4606 22.7574C22.359 22.7574 22.2654 22.7398 22.1798 22.7047C22.095 22.6688 22.0213 22.6168 21.9587 22.5489C21.8968 22.4801 21.8487 22.3968 21.8143 22.299C21.7807 22.2005 21.7639 22.0889 21.7639 21.9644V21.8349C21.7639 21.7104 21.7784 21.5992 21.8074 21.5015C21.8372 21.4037 21.8808 21.3208 21.938 21.2528C21.9953 21.184 22.0656 21.1321 22.1489 21.0969C22.2322 21.061 22.3277 21.0431 22.4354 21.0431C22.563 21.0431 22.6695 21.0652 22.7551 21.1095C22.8414 21.1531 22.9087 21.2134 22.9568 21.2906C23.0057 21.3678 23.037 21.4556 23.0508 21.5542H22.8296C22.8197 21.4938 22.7998 21.4388 22.77 21.3892C22.741 21.3395 22.6993 21.2998 22.6451 21.27C22.5909 21.2394 22.521 21.2241 22.4354 21.2241C22.3582 21.2241 22.2914 21.2383 22.2348 21.2665C22.1783 21.2948 22.1317 21.3353 22.095 21.388C22.0584 21.4407 22.0309 21.5045 22.0125 21.5794C21.995 21.6543 21.9862 21.7387 21.9862 21.8326V21.9644C21.9862 22.0607 21.9973 22.1466 22.0194 22.2223C22.0423 22.2979 22.0748 22.3624 22.1168 22.4159C22.1588 22.4686 22.2089 22.5087 22.2669 22.5362C22.3258 22.5638 22.3907 22.5775 22.4617 22.5775C22.5404 22.5775 22.6042 22.571 22.6531 22.558C22.702 22.5443 22.7402 22.5282 22.7677 22.5099C22.7952 22.4908 22.8162 22.4728 22.8307 22.456V22.0825H22.4446V21.9037H23.0508ZM24.0042 21.066H24.5565C24.6818 21.066 24.7876 21.0851 24.874 21.1233C24.9611 21.1615 25.0271 21.218 25.0722 21.2929C25.1181 21.367 25.141 21.4583 25.141 21.5668C25.141 21.6432 25.1253 21.7131 25.094 21.7765C25.0634 21.8391 25.0191 21.8926 24.9611 21.9369C24.9038 21.9805 24.835 22.0129 24.7548 22.0343L24.6929 22.0584H24.1738L24.1715 21.8785H24.5634C24.6429 21.8785 24.709 21.8647 24.7617 21.8372C24.8144 21.809 24.8541 21.7711 24.8808 21.7238C24.9076 21.6764 24.921 21.6241 24.921 21.5668C24.921 21.5026 24.9083 21.4465 24.8831 21.3983C24.8579 21.3502 24.8182 21.3131 24.764 21.2872C24.7105 21.2604 24.6413 21.2471 24.5565 21.2471H24.2254V22.7345H24.0042V21.066ZM24.9794 22.7345L24.5737 21.9782L24.8041 21.977L25.2155 22.7207V22.7345H24.9794ZM27.3217 21.8475V21.953C27.3217 22.0783 27.3061 22.1906 27.2747 22.2899C27.2434 22.3892 27.1983 22.4736 27.1395 22.5431C27.0807 22.6126 27.01 22.6657 26.9275 22.7024C26.8458 22.7391 26.7541 22.7574 26.6525 22.7574C26.5539 22.7574 26.4634 22.7391 26.3809 22.7024C26.2991 22.6657 26.2281 22.6126 26.1677 22.5431C26.1082 22.4736 26.0619 22.3892 26.0291 22.2899C25.9962 22.1906 25.9798 22.0783 25.9798 21.953V21.8475C25.9798 21.7222 25.9959 21.6103 26.0279 21.5118C26.0608 21.4125 26.107 21.328 26.1666 21.2585C26.2262 21.1882 26.2969 21.1348 26.3786 21.0981C26.4611 21.0614 26.5516 21.0431 26.6502 21.0431C26.7518 21.0431 26.8435 21.0614 26.9252 21.0981C27.0077 21.1348 27.0784 21.1882 27.1372 21.2585C27.1968 21.328 27.2423 21.4125 27.2736 21.5118C27.3057 21.6103 27.3217 21.7222 27.3217 21.8475ZM27.1028 21.953V21.8452C27.1028 21.7459 27.0925 21.6581 27.0719 21.5817C27.052 21.5053 27.0226 21.4411 26.9837 21.3892C26.9447 21.3372 26.8969 21.2979 26.8404 21.2711C26.7846 21.2444 26.7212 21.231 26.6502 21.231C26.5814 21.231 26.5192 21.2444 26.4634 21.2711C26.4084 21.2979 26.361 21.3372 26.3213 21.3892C26.2823 21.4411 26.2522 21.5053 26.2308 21.5817C26.2094 21.6581 26.1987 21.7459 26.1987 21.8452V21.953C26.1987 22.053 26.2094 22.1417 26.2308 22.2188C26.2522 22.2952 26.2827 22.3598 26.3224 22.4125C26.3629 22.4644 26.4107 22.5038 26.4657 22.5305C26.5215 22.5573 26.5837 22.5706 26.6525 22.5706C26.7243 22.5706 26.7881 22.5573 26.8439 22.5305C26.8996 22.5038 26.9466 22.4644 26.9848 22.4125C27.0238 22.3598 27.0532 22.2952 27.073 22.2188C27.0929 22.1417 27.1028 22.053 27.1028 21.953ZM29.1942 21.066H29.4142V22.1948C29.4142 22.32 29.3863 22.4243 29.3306 22.5076C29.2748 22.5909 29.2007 22.6535 29.1082 22.6955C29.0166 22.7368 28.9169 22.7574 28.8092 22.7574C28.6961 22.7574 28.5937 22.7368 28.502 22.6955C28.4111 22.6535 28.3389 22.5909 28.2855 22.5076C28.2327 22.4243 28.2064 22.32 28.2064 22.1948V21.066H28.4253V22.1948C28.4253 22.2818 28.4413 22.3537 28.4734 22.4102C28.5055 22.4667 28.5502 22.5087 28.6075 22.5362C28.6655 22.5638 28.7328 22.5775 28.8092 22.5775C28.8863 22.5775 28.9535 22.5638 29.0108 22.5362C29.0689 22.5087 29.114 22.4667 29.1461 22.4102C29.1781 22.3537 29.1942 22.2818 29.1942 22.1948V21.066ZM30.9635 22.0802H30.5178V21.9002H30.9635C31.0499 21.9002 31.1198 21.8865 31.1732 21.859C31.2267 21.8315 31.2657 21.7933 31.2901 21.7444C31.3153 21.6955 31.3279 21.6397 31.3279 21.5771C31.3279 21.5198 31.3153 21.4659 31.2901 21.4155C31.2657 21.3651 31.2267 21.3246 31.1732 21.294C31.1198 21.2627 31.0499 21.2471 30.9635 21.2471H30.5693V22.7345H30.3482V21.066H30.9635C31.0896 21.066 31.1962 21.0878 31.2833 21.1313C31.3703 21.1749 31.4364 21.2352 31.4815 21.3124C31.5266 21.3888 31.5491 21.4762 31.5491 21.5748C31.5491 21.6818 31.5266 21.773 31.4815 21.8487C31.4364 21.9243 31.3703 21.982 31.2833 22.0217C31.1962 22.0607 31.0896 22.0802 30.9635 22.0802Z" fill="currentColor"/>
<path d="M7.04656 16.6274C7.04656 16.6274 7.71543 16.6274 8.80674 16.645C9.46387 16.645 10.2559 16.645 11.183 16.6157C11.5526 16.5981 11.9399 16.5805 12.3388 16.5394C15.5717 16.205 18.6461 14.6326 20.2948 11.4466L21.0224 11.1357L21.3099 11.8808C21.3099 11.8808 19.1272 16.5101 12.4327 16.8915C11.4939 16.9443 10.4554 16.9384 9.31132 16.9501C8.59552 16.956 7.84451 16.9501 7.0407 16.9501V16.6392L7.04656 16.6274Z" fill="currentColor"/>
<path d="M22.2486 12.7198L21.3099 11.875L20.2948 11.4466L19.051 11.4173L21.744 9.00587L22.2486 12.7257V12.7198Z" fill="currentColor"/>
</g>
<defs>
<clipPath id="clip0_3984_4579">
<rect width="32" height="14.6564" fill="white" transform="translate(0 9)"/>
</clipPath>
</defs>
</svg>
